<svg width="24" height="24" viewBox="0 0 24 24" fill="none" xmlns="http://www.w3.org/2000/svg">
<path d="M0.75 15.3501C0.816303 15.3501 0.879892 15.3764 0.926777 15.4233C0.973661 15.4702 1 15.5338 1 15.6001V19.3501C1 19.8805 1.21071 20.3892 1.58579 20.7643C1.96086 21.1394 2.46957 21.3501 3 21.3501H21C21.5304 21.3501 22.0391 21.1394 22.4142 20.7643C22.7893 20.3892 23 19.8805 23 19.3501V15.6001C23 15.5338 23.0263 15.4702 23.0732 15.4233C23.1201 15.3764 23.1837 15.3501 23.25 15.3501C23.3163 15.3501 23.3799 15.3764 23.4268 15.4233C23.4737 15.4702 23.5 15.5338 23.5 15.6001V19.3501C23.5 20.0131 23.2366 20.649 22.7678 21.1179C22.2989 21.5867 21.663 21.8501 21 21.8501H3C2.33696 21.8501 1.70107 21.5867 1.23223 21.1179C0.763392 20.649 0.5 20.0131 0.5 19.3501V15.6001C0.5 15.5338 0.526339 15.4702 0.573223 15.4233C0.620108 15.3764 0.683697 15.3501 0.75 15.3501Z" fill="#EFF7FA" stroke="#BCE6AD"/>
<path d="M11.8235 2.07243L11.8239 2.07198C11.8472 2.0487 11.8748 2.03023 11.9051 2.01763C11.9355 2.00502 11.9681 1.99854 12.0009 1.99854C12.0338 1.99854 12.0664 2.00502 12.0968 2.01763L12.2879 1.5571L12.0968 2.01763C12.1271 2.03023 12.1547 2.0487 12.1779 2.07198L12.1784 2.07243L16.6784 6.57243C16.7255 6.61949 16.7519 6.68332 16.7519 6.74988C16.7519 6.81643 16.7255 6.88026 16.6784 6.92732C16.6313 6.97438 16.5675 7.00082 16.5009 7.00082C16.4344 7.00082 16.3706 6.97438 16.3235 6.92732L13.1046 3.70691L12.2509 2.85287V4.06038V17.2499C12.2509 17.3162 12.2246 17.3798 12.1777 17.4267C12.1308 17.4735 12.0673 17.4999 12.0009 17.4999C11.9346 17.4999 11.8711 17.4735 11.8242 17.4267C11.7773 17.3798 11.7509 17.3162 11.7509 17.2499V4.06038V2.85287L10.8973 3.70691L7.6784 6.92732C7.67837 6.92735 7.67834 6.92738 7.67831 6.92741C7.65503 6.95067 7.62739 6.96913 7.59698 6.98172C7.56654 6.99433 7.5339 7.00082 7.50095 7.00082C7.46799 7.00082 7.43536 6.99433 7.40491 6.98172C7.37447 6.96911 7.3468 6.95063 7.3235 6.92732C7.3002 6.90402 7.28171 6.87636 7.2691 6.84591C7.25649 6.81546 7.25 6.78283 7.25 6.74988C7.25 6.71692 7.25649 6.68429 7.2691 6.65384C7.28171 6.6234 7.3002 6.59573 7.3235 6.57243L11.8235 2.07243Z" fill="#EFF7FA" stroke="#BCE6AD"/>
</svg>
