<svg width="136" height="136" viewBox="0 0 136 136" fill="none" xmlns="http://www.w3.org/2000/svg">
<path d="M86.4078 67.9993L122.041 32.3662C127.124 27.2832 127.124 19.0422 122.041 13.9592C116.958 8.87622 108.717 8.87622 103.634 13.9592L68.0008 49.5923L32.3677 13.9592C27.2847 8.87622 19.0437 8.87622 13.9607 13.9592C8.87769 19.0422 8.87769 27.2832 13.9607 32.3662L49.5938 67.9993L13.9607 103.632C8.87769 108.715 8.87769 116.956 13.9607 122.039C16.5022 124.581 19.8331 125.852 23.1641 125.852C26.495 125.852 29.8262 124.581 32.3674 122.039L68.0008 86.4063L103.634 122.039C106.175 124.581 109.506 125.852 112.837 125.852C116.168 125.852 119.499 124.581 122.041 122.039C127.124 116.956 127.124 108.715 122.041 103.632L86.4078 67.9993Z" fill="#E53935"/>
</svg>
