<svg width="136" height="136" viewBox="0 0 136 136" fill="none" xmlns="http://www.w3.org/2000/svg">
<path d="M124.669 59.4987V87.832C124.669 107.665 113.336 116.165 96.3359 116.165H39.6693C22.6693 116.165 11.3359 107.665 11.3359 87.832V48.1654C11.3359 28.332 22.6693 19.832 39.6693 19.832H79.3359" stroke="#BCE6AD" stroke-width="1.5" stroke-miterlimit="10" stroke-linecap="round" stroke-linejoin="round"/>
<path d="M39.6641 51L57.4008 65.1667C63.2374 69.8133 72.8141 69.8133 78.6508 65.1667L85.3374 59.84" stroke="#BCE6AD" stroke-width="1.5" stroke-miterlimit="10" stroke-linecap="round" stroke-linejoin="round"/>
<path d="M110.503 45.3333C118.327 45.3333 124.669 38.9907 124.669 31.1667C124.669 23.3426 118.327 17 110.503 17C102.679 17 96.3359 23.3426 96.3359 31.1667C96.3359 38.9907 102.679 45.3333 110.503 45.3333Z" stroke="#BCE6AD" stroke-width="1.5" stroke-miterlimit="10" stroke-linecap="round" stroke-linejoin="round"/>
</svg>
