<svg width="136" height="136" viewBox="0 0 136 136" fill="none" xmlns="http://www.w3.org/2000/svg">
<path d="M76.2466 42.2439C77.444 41.104 79.0373 40.4737 80.6905 40.4863C82.3437 40.4988 83.9274 41.153 85.1074 42.3109C86.2874 43.4689 86.9714 45.0399 87.0151 46.6926C87.0588 48.3452 86.4587 49.9502 85.3416 51.1689L51.4266 93.5839C50.8434 94.212 50.1395 94.7161 49.3571 95.066C48.5747 95.4159 47.7297 95.6044 46.8727 95.6203C46.0157 95.6362 45.1644 95.4791 44.3695 95.1584C43.5746 94.8377 42.8526 94.36 42.2466 93.7539L19.7556 71.2629C19.1292 70.6793 18.6269 69.9755 18.2784 69.1935C17.93 68.4115 17.7427 67.5673 17.7276 66.7113C17.7125 65.8554 17.8699 65.0051 18.1905 64.2113C18.5112 63.4175 18.9884 62.6964 19.5938 62.0911C20.1991 61.4857 20.9202 61.0085 21.714 60.6879C22.5078 60.3672 23.358 60.2098 24.214 60.2249C25.07 60.24 25.9142 60.4273 26.6962 60.7758C27.4782 61.1242 28.182 61.6266 28.7656 62.2529L46.5646 80.0434L76.0766 42.4309C76.1295 42.3653 76.1863 42.3028 76.2466 42.2439ZM68.4266 85.9339L76.2466 93.7539C76.8525 94.3587 77.574 94.8353 78.368 95.1552C79.1621 95.4751 80.0125 95.6318 80.8684 95.6159C81.7243 95.6 82.5683 95.4119 83.35 95.0628C84.1317 94.7137 84.835 94.2107 85.4181 93.5839L119.35 51.1689C119.96 50.5671 120.442 49.8487 120.767 49.0564C121.093 48.2642 121.256 47.4145 121.246 46.558C121.236 45.7015 121.053 44.8558 120.709 44.0714C120.365 43.287 119.866 42.58 119.243 41.9926C118.62 41.4051 117.884 40.9494 117.081 40.6525C116.277 40.3556 115.422 40.2237 114.567 40.2646C113.711 40.3055 112.873 40.5184 112.101 40.8906C111.33 41.2628 110.641 41.7867 110.077 42.4309L80.5561 80.0434L76.4336 75.9124L68.4181 85.9339H68.4266Z" fill="#BCE6AD"/>
</svg>
