<svg width="168" height="168" viewBox="0 0 168 168" fill="none" xmlns="http://www.w3.org/2000/svg">
<g opacity="0.7">
<rect width="168" height="168" rx="84" fill="#000A12"/>
<path d="M119 64V54H109V44H119V34H129V44H139V54H129V64H119ZM39 134C36.25 134 33.8967 133.022 31.94 131.065C29.98 129.105 29 126.75 29 124V64C29 61.25 29.98 58.8967 31.94 56.94C33.8967 54.98 36.25 54 39 54H54.75L64 44H94V54H68.375L59.25 64H39V124H119V79H129V124C129 126.75 128.022 129.105 126.065 131.065C124.105 133.022 121.75 134 119 134H39ZM79 116.5C85.25 116.5 90.5633 114.313 94.94 109.94C99.3133 105.563 101.5 100.25 101.5 94C101.5 87.75 99.3133 82.4367 94.94 78.06C90.5633 73.6867 85.25 71.5 79 71.5C72.75 71.5 67.4367 73.6867 63.06 78.06C58.6867 82.4367 56.5 87.75 56.5 94C56.5 100.25 58.6867 105.563 63.06 109.94C67.4367 114.313 72.75 116.5 79 116.5ZM79 106.5C75.5 106.5 72.5417 105.292 70.125 102.875C67.7083 100.458 66.5 97.5 66.5 94C66.5 90.5 67.7083 87.5417 70.125 85.125C72.5417 82.7083 75.5 81.5 79 81.5C82.5 81.5 85.4583 82.7083 87.875 85.125C90.2917 87.5417 91.5 90.5 91.5 94C91.5 97.5 90.2917 100.458 87.875 102.875C85.4583 105.292 82.5 106.5 79 106.5Z" fill="white"/>
</g>
</svg>
